<svg aria-hidden="true" style="position:absolute;width:0;height:0;overflow:hidden" xmlns="http://www.w3.org/2000/svg"><defs><symbol id="icon-wallet" viewBox="0 0 32 32"><path fill="#24cca7" style="fill:var(--color1, #24cca7)" d="m3.755 7.619 16.211-4.538-.858-1.779C18.546.146 17.177-.332 16.049.244L1.536 7.619h2.219zm21.059-4.571c-.209 0-.411.032-.601.091l.014-.004L9.215 7.618h18.43l-.692-2.778c-.266-1.083-1.163-1.792-2.14-1.792z"/><path fill="#4a56e2" style="fill:var(--color2, #4a56e2)" d="M28.36 8.573H1.797a1.8 1.8 0 0 0-1.73 1.303l-.003.013c-.039.14-.063.3-.064.466v19.863A1.79 1.79 0 0 0 1.79 32h26.567a1.79 1.79 0 0 0 1.796-1.782v-4.974H19.491c-1.686 0-3.054-1.358-3.054-3.03v-3.966a3 3 0 0 1 .866-2.11 3.026 3.026 0 0 1 2.172-.916H30.154v-4.867a1.784 1.784 0 0 0-1.785-1.782h-.008z"/><path fill="#4a56e2" style="fill:var(--color2, #4a56e2)" d="M31.414 16.926a1.79 1.79 0 0 0-1.209-.467H19.491a1.79 1.79 0 0 0-1.797 1.782v3.969a1.79 1.79 0 0 0 1.79 1.782h10.719c.205 0 .399-.036.582-.096.237-.079.449-.208.629-.371.359-.325.586-.795.586-1.316v-3.968c0-.52-.226-.991-.586-1.315zm-8.172 3.655a.895.895 0 0 1-.898.891h-.596a.895.895 0 0 1-.898-.891v-.592c0-.286.133-.538.345-.698a.906.906 0 0 1 .553-.193h.596c.496 0 .898.399.898.891v.592z"/></symbol><symbol id="icon-home" viewBox="0 0 32 32"><path fill="#4a56e2" style="fill:var(--color2, #4a56e2)" d="M3.556 0A3.556 3.556 0 0 0 0 3.556v24.889a3.556 3.556 0 0 0 3.556 3.556h24.889a3.556 3.556 0 0 0 3.556-3.556V3.556A3.556 3.556 0 0 0 28.445 0H3.556zm10.311 17.988v6.901H8.534v-9.202h-3.2L16.001 5.333l10.667 10.354h-3.2v9.202h-5.333v-6.901h-4.267z"/></symbol><symbol id="icon-statis" viewBox="0 0 32 32"><path fill="#6e78e8" style="fill:var(--color3, #6e78e8)" d="M3.556 0h24.889a3.556 3.556 0 0 1 3.556 3.556v24.889a3.556 3.556 0 0 1-3.556 3.556H3.556A3.556 3.556 0 0 1 0 28.445V3.556A3.556 3.556 0 0 1 3.556 0zm22.625 13.63c1.244 0 2.263-1.067 2.263-2.372 0-1.303-1.019-2.37-2.263-2.37s-2.263 1.067-2.263 2.37c0 .213.023.416.08.604l-4.016 4.22a1.874 1.874 0 0 0-.56-.084h-.028.001c-.206 0-.409.023-.59.084L15.92 13.06c.051-.176.08-.378.08-.587v-.032.002c0-1.303-1.019-2.37-2.263-2.37s-2.261 1.067-2.261 2.37c0 .213.021.427.078.617l-5.159 5.392a1.806 1.806 0 0 0-.549-.084h-.028.001c-1.244 0-2.263 1.067-2.263 2.372 0 1.303 1.019 2.37 2.263 2.37s2.261-1.067 2.261-2.37a2.08 2.08 0 0 0-.078-.604l5.147-5.404c.181.059.386.082.588.082.204 0 .409-.023.588-.082l2.885 3.022c-.051.176-.08.378-.08.587v.03-.002c0 1.305 1.019 2.372 2.263 2.372s2.263-1.067 2.263-2.372c0-.213-.023-.427-.08-.615l4.028-4.208c.18.059.373.084.576.084z"/></symbol></defs></svg>