<svg width="40" height="40" fill="none" xmlns="http://www.w3.org/2000/svg"><path d="M4.69408 9.52382 24.9583 3.85236l-1.0732-2.22411C23.183.182586 21.4705-.41441 20.0606.305497L1.91989 9.52382h2.77419ZM31.0166 3.80957c-.2442 0-.4884.03644-.7326.10931l-4.6288 1.38454-14.136 4.22044H34.5576l-.8659-3.47351c-.333-1.35418-1.4541-2.24078-2.6751-2.24078Z" fill="#24CCA7"/><path d="M35.4497 10.7161H2.25042c-.70971 0-1.343065.3253-1.756316.8378-.188658.2362-.332397.508-.4132506.8066C.031443 12.5477 0 12.7438 0 12.9443v24.8273c0 1.23 1.00618 2.2283 2.24593 2.2283H35.4452c1.2398 0 2.246-.9983 2.246-2.2283v-6.2168H24.3638c-2.1066 0-3.818-1.698-3.818-3.7881V22.8111c0-1.025.4132-1.9564 1.0825-2.6383.5929-.6061 1.388-1.0161 2.2774-1.1186.1482-.0178.3009-.0267.4536-.0267h13.3319v-6.0832c.0045-1.23-1.0017-2.2282-2.2415-2.2282Z" fill="#4A56E2"/><path d="M39.2679 21.1578c-.2246-.205-.4896-.361-.7861-.4635-.2291-.0758-.4716-.1203-.7277-.1203H24.3639c-1.2397 0-2.2459.9982-2.2459 2.2282v4.9602c0 1.23 1.0062 2.2282 2.2459 2.2282h13.3902c.2561 0 .4986-.0445.7277-.1203.2965-.098.5615-.2585.7861-.4635.4492-.4055.7322-.9938.7322-1.6444v-4.9602c0-.6506-.283-1.2389-.7322-1.6444Zm-10.2145 4.5679c0 .615-.5031 1.1142-1.123 1.1142h-.7456c-.6199 0-1.123-.4992-1.123-1.1142v-.7398c0-.3565.1662-.6729.4312-.8734.1932-.1471.4313-.2407.6918-.2407H27.9304c.6199 0 1.123.4991 1.123 1.1141v.7398Z" fill="#4A56E2"/></svg>